# xmcd
#
# Track frame offsets:
#  150
#  17904
#  34476
#  50323
#  69773
#  82158
#  97784
#  117628
#  136366
#  163999
#  183790
#  205234
#
# Disc length: 2949 seconds
#
# Revision: 1
# Processed by: cddbd v1.5.1PL2 Copyright (c) Steve Scherf et al.
# Submitted via: Collectorz.com_Music_Collector 6.11
#
DISCID=a40b830c
DTITLE=Jimi 'Prime Time' Smith - Back On Track
DYEAR=2006
DGENRE=Blues
TTITLE0=Blinded
TTITLE1=Whole Lot Of Power
TTITLE2=South Bound
TTITLE3=Travel'in Shoes
TTITLE4=Gotta Go
TTITLE5=Play'n Games
TTITLE6=Love, No Sale
TTITLE7=These Blues
TTITLE8=Prisoner
TTITLE9=Windy City
TTITLE10=Can I Change My Mind?
TTITLE11=Devil's Shoestrings
EXTD=
EXTT0=
EXTT1=
EXTT2=
EXTT3=
EXTT4=
EXTT5=
EXTT6=
EXTT7=
EXTT8=
EXTT9=
EXTT10=
EXTT11=
PLAYORDER=
